<?xml version="1.0" encoding="UTF-8"?>
<svg id="uuid-ea992cde-8651-4b0c-8b65-ba5f3e71d146" data-name="Layer 2" xmlns="http://www.w3.org/2000/svg" viewBox="0 0 397.72 126.43">
  <g id="uuid-38467a7d-3f06-4b95-9f13-f8cab2e15842" data-name="Layer 1">
    <g>
      <path d="M390.35,11.57c.33-.26.58-.6.74-.99.16-.4.25-.85.25-1.36s-.08-.99-.25-1.38c-.17-.39-.43-.72-.78-.99-.35-.27-.79-.47-1.33-.6-.53-.13-1.18-.2-1.93-.2h-4.75v10.7h1.12v-4.39h2.71l3.57,4.39h1.41l-3.58-4.4c.59-.01,1.13-.07,1.58-.19.51-.13.93-.33,1.26-.6M387.1,11.3h-3.7v-4.17h3.7c.55,0,1.02.04,1.41.13.39.09.7.22.94.39.24.17.41.39.52.65.11.26.16.57.16.92,0,.34-.05.64-.16.9-.11.27-.28.48-.52.66-.24.17-.55.3-.94.39-.39.09-.86.13-1.41.13"/>
      <path d="M386.81,22.31c-6.01,0-10.91-4.89-10.91-10.91s4.89-10.91,10.91-10.91,10.91,4.89,10.91,10.91-4.89,10.91-10.91,10.91M386.81,1.21c-5.62,0-10.2,4.58-10.2,10.2s4.58,10.2,10.2,10.2,10.2-4.58,10.2-10.2-4.58-10.2-10.2-10.2"/>
      <polygon points="180.42 3.93 135.59 47.51 135.59 126.42 181.61 126.42 263.2 47.16 263.2 0 215.35 0 215.35 91.91 180.42 91.91 180.42 3.93"/>
      <polygon points="322.2 126.42 366.59 80.45 366.59 0 320.57 0 238.98 79.26 238.98 126.42 286.83 126.42 286.83 34.51 322.2 34.51 322.2 126.42"/>
      <polygon points="0 0 124.78 0 124.78 49.45 45.52 126.42 .4 126.42 .27 83.91 88.37 83.91 88.37 34.51 .15 34.51 0 0"/>
      <polygon points="124.78 83.91 124.78 126.43 88.37 126.43 88.37 93.38 98.13 83.91 124.78 83.91"/>
    </g>
  </g>
</svg>